<svg xmlns="http://www.w3.org/2000/svg" xmlns:xlink="http://www.w3.org/1999/xlink" version="1.1" width="1000" height="1000" viewBox="0 0 1000 1000" xml:space="preserve">
<desc>Created with Fabric.js 3.5.0</desc>
<defs>
</defs>
<rect x="0" y="0" width="100%" height="100%" fill="#ffffff"/>
<g transform="matrix(-56.8182 0 0 56.8182 500.0001 500.0001)" id="551569">
<g style="" vector-effect="non-scaling-stroke">
		<g transform="matrix(1 0 0 1 -0.4997 0.0001)">
<path style="stroke: none; stroke-width: 1; stroke-dasharray: none; stroke-linecap: butt; stroke-dashoffset: 0; stroke-linejoin: miter; stroke-miterlimit: 4; is-custom-font: none; font-file-url: none; fill: rgb(0,0,0); fill-rule: nonzero; opacity: 1;" transform=" translate(-7.5003, -8.0001)" d="M 6 0.278 a 0.77 0.77 0 0 1 0.08 0.858 a 7.2 7.2 0 0 0 -0.878 3.46 c 0 4.021 3.278 7.277 7.318 7.277 q 0.792 -0.001 1.533 -0.16 a 0.79 0.79 0 0 1 0.81 0.316 a 0.73 0.73 0 0 1 -0.031 0.893 A 8.35 8.35 0 0 1 8.344 16 C 3.734 16 0 12.286 0 7.71 C 0 4.266 2.114 1.312 5.124 0.06 A 0.75 0.75 0 0 1 6 0.278 M 4.858 1.311 A 7.27 7.27 0 0 0 1.025 7.71 c 0 4.02 3.279 7.276 7.319 7.276 a 7.32 7.32 0 0 0 5.205 -2.162 q -0.506 0.063 -1.029 0.063 c -4.61 0 -8.343 -3.714 -8.343 -8.29 c 0 -1.167 0.242 -2.278 0.681 -3.286" stroke-linecap="round"/>
</g>
		<g transform="matrix(1 0 0 1 3.9988 -3.4989)">
<path style="stroke: none; stroke-width: 1; stroke-dasharray: none; stroke-linecap: butt; stroke-dashoffset: 0; stroke-linejoin: miter; stroke-miterlimit: 4; is-custom-font: none; font-file-url: none; fill: rgb(0,0,0); fill-rule: nonzero; opacity: 1;" transform=" translate(-11.9989, -4.5011)" d="M 10.794 3.148 a 0.217 0.217 0 0 1 0.412 0 l 0.387 1.162 c 0.173 0.518 0.579 0.924 1.097 1.097 l 1.162 0.387 a 0.217 0.217 0 0 1 0 0.412 l -1.162 0.387 a 1.73 1.73 0 0 0 -1.097 1.097 l -0.387 1.162 a 0.217 0.217 0 0 1 -0.412 0 l -0.387 -1.162 A 1.73 1.73 0 0 0 9.31 6.593 l -1.162 -0.387 a 0.217 0.217 0 0 1 0 -0.412 l 1.162 -0.387 a 1.73 1.73 0 0 0 1.097 -1.097 z M 13.863 0.099 a 0.145 0.145 0 0 1 0.274 0 l 0.258 0.774 c 0.115 0.346 0.386 0.617 0.732 0.732 l 0.774 0.258 a 0.145 0.145 0 0 1 0 0.274 l -0.774 0.258 a 1.16 1.16 0 0 0 -0.732 0.732 l -0.258 0.774 a 0.145 0.145 0 0 1 -0.274 0 l -0.258 -0.774 a 1.16 1.16 0 0 0 -0.732 -0.732 l -0.774 -0.258 a 0.145 0.145 0 0 1 0 -0.274 l 0.774 -0.258 c 0.346 -0.115 0.617 -0.386 0.732 -0.732 z" stroke-linecap="round"/>
</g>
</g>
</g>
</svg>