<svg xmlns="http://www.w3.org/2000/svg" xmlns:xlink="http://www.w3.org/1999/xlink" version="1.1" width="1000" height="1000" viewBox="0 0 1000 1000" xml:space="preserve">
<desc>Created with Fabric.js 3.5.0</desc>
<defs>
</defs>
<rect x="0" y="0" width="100%" height="100%" fill="#ffffff"/>
<g transform="matrix(-56.8189 0 0 56.8189 500.0002 500.0002)" id="617286">
<path style="stroke: none; stroke-width: 1; stroke-dasharray: none; stroke-linecap: butt; stroke-dashoffset: 0; stroke-linejoin: miter; stroke-miterlimit: 4; is-custom-font: none; font-file-url: none; fill: rgb(0,0,0); fill-rule: nonzero; opacity: 1;" vector-effect="non-scaling-stroke" transform=" translate(-7.5003, -8.0001)" d="M 6 0.278 a 0.77 0.77 0 0 1 0.08 0.858 a 7.2 7.2 0 0 0 -0.878 3.46 c 0 4.021 3.278 7.277 7.318 7.277 q 0.792 -0.001 1.533 -0.16 a 0.79 0.79 0 0 1 0.81 0.316 a 0.73 0.73 0 0 1 -0.031 0.893 A 8.35 8.35 0 0 1 8.344 16 C 3.734 16 0 12.286 0 7.71 C 0 4.266 2.114 1.312 5.124 0.06 A 0.75 0.75 0 0 1 6 0.278 M 4.858 1.311 A 7.27 7.27 0 0 0 1.025 7.71 c 0 4.02 3.279 7.276 7.319 7.276 a 7.32 7.32 0 0 0 5.205 -2.162 q -0.506 0.063 -1.029 0.063 c -4.61 0 -8.343 -3.714 -8.343 -8.29 c 0 -1.167 0.242 -2.278 0.681 -3.286" stroke-linecap="round"/>
</g>
</svg>